<svg xmlns="http://www.w3.org/2000/svg" viewBox="0 0 500 100" width="500" height="100">
  <!-- Combined Brand Lockup -->

  <!-- Mitre Cut S mark (smaller version of Concept C) -->
  <circle cx="42" cy="50" r="38" fill="#F7F5F2" stroke="#2C4A3E" stroke-width="2"/>
  <path d="
    M 56 27
    L 50 27
    C 38 27, 28 31, 28 40
    C 28 49, 38 53, 48 55
    C 55 56, 58 60, 58 65
    C 58 70, 52 73, 47 73
    L 30 73
    L 24 67
    L 44 67
    C 49 67, 52 65, 52 62
    C 52 59, 48 57, 42 56
    C 32 53, 22 48, 22 38
    C 22 29, 30 25, 40 25
    L 62 25
    Z
  " fill="#2C4A3E"/>

  <!-- STONERA wordmark -->
  <!-- S -->
  <path d="M110 38 C110 32, 116 28, 124 28 L132 28 C138 28, 142 31, 142 35 C142 39, 138 42, 132 42 L120 42 C114 42, 110 45, 110 49 C110 53, 114 56, 120 56 L132 56 C138 56, 142 53, 142 49" fill="none" stroke="#1A1A1A" stroke-width="4" stroke-linecap="square"/>
  <!-- T -->
  <path d="M150 28 L176 28 M163 28 L163 56" fill="none" stroke="#1A1A1A" stroke-width="4" stroke-linecap="square"/>
  <!-- O -->
  <ellipse cx="200" cy="42" rx="14" ry="14" fill="none" stroke="#1A1A1A" stroke-width="4"/>
  <!-- N -->
  <path d="M222 56 L222 28 L246 56 L246 28" fill="none" stroke="#1A1A1A" stroke-width="4" stroke-linecap="square"/>
  <!-- E -->
  <path d="M276 56 L256 56 L256 28 L276 28 M256 42 L272 42" fill="none" stroke="#1A1A1A" stroke-width="4" stroke-linecap="square"/>
  <!-- R -->
  <path d="M284 56 L284 28 L300 28 C308 28, 312 32, 312 36 C312 40, 308 43, 300 43 L284 43 M300 43 L314 56" fill="none" stroke="#1A1A1A" stroke-width="4" stroke-linecap="square"/>
  <!-- A -->
  <path d="M322 56 L336 28 L350 56 M327 46 L345 46" fill="none" stroke="#1A1A1A" stroke-width="4" stroke-linecap="square"/>

  <!-- Tagline: "Quality Stone Work. No Surprises." in sans-serif style -->
  <text x="110" y="74" font-family="Inter, Helvetica, Arial, sans-serif" font-size="11" fill="#6B6560" letter-spacing="0.5">We cut stone. We don't cut corners.</text>
</svg>