<svg xmlns="http://www.w3.org/2000/svg" viewBox="0 0 400 80" width="400" height="80">
  <!-- STONERA - Modified O Wordmark -->
  <!-- S -->
  <path d="M10 22 C10 14, 18 8, 30 8 L42 8 C50 8, 56 12, 56 18 C56 24, 50 28, 42 28 L24 28 C16 28, 10 32, 10 38 C10 44, 16 48, 24 48 L42 48 C50 48, 56 44, 56 38" fill="none" stroke="#2C4A3E" stroke-width="5" stroke-linecap="square"/>
  <!-- T -->
  <path d="M66 8 L100 8 M83 8 L83 48" fill="none" stroke="#2C4A3E" stroke-width="5" stroke-linecap="square"/>
  <!-- O with horizontal line through center -->
  <path d="M130 28 C130 17, 118 8, 118 8 L140 8 C140 8, 152 17, 152 28 C152 39, 140 48, 140 48 L118 48 C118 48, 130 39, 130 28 Z" fill="none" stroke="#2C4A3E" stroke-width="0"/>
  <ellipse cx="135" cy="28" rx="18" ry="20" fill="none" stroke="#2C4A3E" stroke-width="5"/>
  <line x1="117" y1="28" x2="153" y2="28" stroke="#2C4A3E" stroke-width="2"/>
  <!-- N -->
  <path d="M164 48 L164 8 L196 48 L196 8" fill="none" stroke="#2C4A3E" stroke-width="5" stroke-linecap="square"/>
  <!-- E -->
  <path d="M236 48 L210 48 L210 8 L236 8 M210 28 L232 28" fill="none" stroke="#2C4A3E" stroke-width="5" stroke-linecap="square"/>
  <!-- R -->
  <path d="M248 48 L248 8 L268 8 C278 8, 284 14, 284 20 C284 26, 278 30, 268 30 L248 30 M268 30 L286 48" fill="none" stroke="#2C4A3E" stroke-width="5" stroke-linecap="square"/>
  <!-- A -->
  <path d="M296 48 L314 8 L332 48 M302 34 L326 34" fill="none" stroke="#2C4A3E" stroke-width="5" stroke-linecap="square"/>
  <!-- Decorative underline bar -->
  <rect x="10" y="58" width="322" height="3" rx="1" fill="#2C4A3E"/>
</svg>