<svg xmlns="http://www.w3.org/2000/svg" viewBox="0 0 400 80" width="400" height="80">
  <!-- Diamond Icon -->
  <g transform="translate(38, 40)">
    <!-- Gold outline border -->
    <polygon points="0,-24 24,0 0,24 -24,0" fill="#D4A84B"/>
    <!-- Bottom-left dark half -->
    <polygon points="0,-21 -21,0 0,21" fill="#1A1A1A"/>
    <!-- Top-right gold half -->
    <polygon points="0,-21 21,0 0,21" fill="#D4A84B"/>
  </g>

  <!-- S - Bold geometric -->
  <path fill="#1A1A1A" d="M80,22 Q80,16 87,16 L101,16 Q108,16 108,22 L108,28.5 L101.5,28.5 L101.5,23 Q101.5,21 100,21 L89,21 Q87,21 87,23 L87,29 Q87,31 89,31 L100,31 Q108,31 108,37 L108,48 Q108,54 101,54 L87,54 Q80,54 80,48 L80,41.5 L86.5,41.5 L86.5,47 Q86.5,49 88,49 L100,49 Q101.5,49 101.5,47 L101.5,38 Q101.5,36 100,36 L89,36 Q80,36 80,30 Z"/>

  <!-- T -->
  <path fill="#1A1A1A" d="M112,16 L142,16 L142,21.5 L130.5,21.5 L130.5,54 L123.5,54 L123.5,21.5 L112,21.5 Z"/>

  <!-- O -->
  <path fill="#1A1A1A" d="M146,22 Q146,16 153,16 L169,16 Q176,16 176,22 L176,48 Q176,54 169,54 L153,54 Q146,54 146,48 Z M153,23 Q152.5,23 152.5,24 L152.5,46 Q152.5,48 154,48 L168,48 Q169.5,48 169.5,46 L169.5,24 Q169.5,23 168,23 Z"/>

  <!-- N -->
  <path fill="#1A1A1A" d="M181,16 L188,16 L208,43 L208,16 L214.5,16 L214.5,54 L208,54 L188,27 L188,54 L181,54 Z"/>

  <!-- E (Gold accent) -->
  <path fill="#D4A84B" d="M220,16 L251,16 L251,21.5 L226.5,21.5 L226.5,31.5 L247,31.5 L247,37 L226.5,37 L226.5,48.5 L252,48.5 L252,54 L220,54 Z"/>

  <!-- R -->
  <path fill="#1A1A1A" d="M257,16 L279,16 Q287,16 287,23 L287,31 Q287,37 281,38 L289,54 L282,54 L274.5,38.5 L263.5,38.5 L263.5,54 L257,54 Z M263.5,21.5 L263.5,33 L277,33 Q280.5,33 280.5,30 L280.5,24.5 Q280.5,21.5 277,21.5 Z"/>

  <!-- A -->
  <path fill="#1A1A1A" d="M292,54 L304,16 L313,16 L325,54 L318,54 L315.5,46 L301.5,46 L299,54 Z M303.5,40.5 L313.5,40.5 L308.5,23 Z"/>
</svg>