<svg xmlns="http://www.w3.org/2000/svg" viewBox="0 0 200 200" width="200" height="200">
  <!-- Circle background -->
  <circle cx="100" cy="100" r="95" fill="#F7F5F2" stroke="#2C4A3E" stroke-width="3"/>
  <!-- Mitre Cut S - bold S with 45-degree diagonal cut terminals -->
  <path d="
    M 128 52
    L 114 52
    C 88 52, 68 62, 68 80
    C 68 98, 88 106, 108 110
    C 124 113, 132 120, 132 132
    C 132 144, 120 150, 108 150
    L 72 150
    L 58 136
    L 100 136
    C 110 136, 116 132, 116 126
    C 116 120, 108 116, 96 113
    C 74 108, 52 98, 52 76
    C 52 58, 68 48, 90 48
    L 142 48
    Z
  " fill="#2C4A3E"/>
</svg>