<svg xmlns="http://www.w3.org/2000/svg" viewBox="0 0 450 80" width="450" height="80">
  <!-- Stacked Slabs Icon -->
  <!-- Slab 1 (top, leftmost) -->
  <rect x="8" y="12" width="48" height="6" rx="1" fill="#2C4A3E"/>
  <!-- Slab 2 (middle, slightly offset right) -->
  <rect x="14" y="30" width="48" height="6" rx="1" fill="#2C4A3E"/>
  <!-- Slab 3 (bottom, more offset right) -->
  <rect x="20" y="48" width="48" height="6" rx="1" fill="#2C4A3E"/>

  <!-- STONERA text -->
  <!-- S -->
  <path d="M100 22 C100 14, 108 8, 118 8 L128 8 C136 8, 142 12, 142 18 C142 24, 136 28, 128 28 L114 28 C106 28, 100 32, 100 38 C100 44, 106 48, 114 48 L128 48 C136 48, 142 44, 142 38" fill="none" stroke="#2C4A3E" stroke-width="4.5" stroke-linecap="square"/>
  <!-- T -->
  <path d="M152 8 L184 8 M168 8 L168 48" fill="none" stroke="#2C4A3E" stroke-width="4.5" stroke-linecap="square"/>
  <!-- O -->
  <ellipse cx="210" cy="28" rx="18" ry="20" fill="none" stroke="#2C4A3E" stroke-width="4.5"/>
  <!-- N -->
  <path d="M238 48 L238 8 L268 48 L268 8" fill="none" stroke="#2C4A3E" stroke-width="4.5" stroke-linecap="square"/>
  <!-- E -->
  <path d="M306 48 L280 48 L280 8 L306 8 M280 28 L302 28" fill="none" stroke="#2C4A3E" stroke-width="4.5" stroke-linecap="square"/>
  <!-- R -->
  <path d="M316 48 L316 8 L336 8 C346 8, 352 14, 352 20 C352 26, 346 30, 336 30 L316 30 M336 30 L354 48" fill="none" stroke="#2C4A3E" stroke-width="4.5" stroke-linecap="square"/>
  <!-- A -->
  <path d="M364 48 L382 8 L400 48 M370 34 L394 34" fill="none" stroke="#2C4A3E" stroke-width="4.5" stroke-linecap="square"/>
</svg>